<svg width="50" height="49" viewBox="0 0 50 49" fill="none" xmlns="http://www.w3.org/2000/svg">
<path d="M15.963 27.2815C15.9614 27.3734 15.978 27.4646 16.0119 27.5499C16.0459 27.6352 16.0964 27.7129 16.1606 27.7784C16.2248 27.8439 16.3014 27.896 16.3858 27.9315C16.4703 27.967 16.561 27.9853 16.6525 27.9853H22.647C23.0281 27.9853 23.3365 27.6698 23.3365 27.2755V25.2978C23.3365 24.9034 23.0341 24.588 22.647 24.588H16.6525C16.2715 24.588 15.963 24.9034 15.963 25.2917V27.2815ZM22.647 11.1868C23.0281 11.1868 23.3365 10.8714 23.3365 10.477V8.49325C23.3365 8.09892 23.0341 7.78346 22.647 7.78346H16.6525C16.2715 7.78346 15.963 8.09892 15.963 8.48719V10.471C15.9614 10.5628 15.978 10.654 16.0119 10.7394C16.0459 10.8247 16.0964 10.9023 16.1606 10.9679C16.2248 11.0334 16.3014 11.0854 16.3858 11.1209C16.4703 11.1564 16.561 11.1747 16.6525 11.1747H22.647V11.1868ZM22.1389 47.18C22.1389 46.1062 22.2598 45.0567 22.4716 44.0314H17.3482V39.2388H11.9828V44.0314H4.18582C3.7382 44.0314 3.38737 43.6735 3.38737 43.2246V4.21023C3.38737 3.9979 3.466 3.78556 3.61722 3.6339C3.76845 3.48223 3.97411 3.3973 4.18582 3.3973H25.1452C25.3569 3.3973 25.5625 3.48223 25.7137 3.6339C25.865 3.78556 25.9497 3.9979 25.9436 4.20416V20.8267C26.8331 20.0177 27.9911 19.57 29.1919 19.5709C29.2402 19.5709 29.2826 19.5709 29.331 19.5769V17.1503C29.3314 16.9375 29.4155 16.7335 29.565 16.5824C29.7145 16.4314 29.9173 16.3455 30.1294 16.3434H43.1103C43.322 16.3434 43.5277 16.4284 43.6728 16.58C43.8241 16.7317 43.9088 16.938 43.9088 17.1503V19.4981C45.2395 20.3474 46.3948 21.4455 47.2961 22.7437V14.6387C47.2961 13.7045 46.54 12.9461 45.6145 12.9461H29.3249V1.69865C29.3249 1.24919 29.1473 0.818048 28.831 0.499663C28.5147 0.181278 28.0854 0.00160522 27.6373 0L1.68763 0C1.23979 0.00256017 0.811097 0.182539 0.494983 0.500717C0.178868 0.818895 0.000950353 1.24948 0 1.69865L0 45.7301C-2.85807e-06 46.1796 0.177608 46.6107 0.493928 46.9291C0.810248 47.2475 1.23949 47.4271 1.68763 47.4287H22.151C22.1449 47.3438 22.1389 47.2589 22.1389 47.18ZM15.963 18.8854C15.9614 18.9772 15.978 19.0684 16.0119 19.1537C16.0459 19.2391 16.0964 19.3167 16.1606 19.3822C16.2248 19.4478 16.3014 19.4998 16.3858 19.5353C16.4703 19.5708 16.561 19.5891 16.6525 19.5891H22.647C23.0281 19.5891 23.3365 19.2736 23.3365 18.8793V16.8955C23.3365 16.5012 23.0341 16.1857 22.647 16.1857H16.6525C16.2715 16.1857 15.963 16.5012 15.963 16.8894V18.8854ZM15.963 35.6838C15.963 35.8719 16.0356 36.0478 16.1626 36.1813C16.2896 36.3147 16.4711 36.3875 16.6525 36.3875H22.647C23.0281 36.3875 23.3365 36.0721 23.3365 35.6777V33.6939C23.3365 33.2996 23.0341 32.9842 22.647 32.9842H16.6525C16.2715 32.9842 15.963 33.2996 15.963 33.6879V35.6838ZM13.362 16.9016C13.362 16.5072 13.0595 16.1918 12.6724 16.1918H6.67795C6.29688 16.1918 5.98838 16.5072 5.98838 16.8955V18.8793C5.98838 19.0613 6.06097 19.2433 6.188 19.3767C6.31502 19.5102 6.49649 19.583 6.67795 19.583H12.6724C13.0535 19.583 13.362 19.2675 13.362 18.8732V16.9016ZM13.362 25.2978C13.362 24.9034 13.0595 24.588 12.6724 24.588H6.67795C6.29688 24.588 5.98838 24.9034 5.98838 25.2917V27.2755C5.98838 27.4575 6.06097 27.6395 6.188 27.7729C6.31502 27.9064 6.49649 27.9792 6.67795 27.9792H12.6724C13.0535 27.9792 13.362 27.6637 13.362 27.2694V25.2978ZM13.362 8.49932C13.362 8.10499 13.0595 7.78953 12.6724 7.78953H6.67795C6.29688 7.78953 5.98838 8.10499 5.98838 8.49932V10.4831C5.98838 10.6651 6.06097 10.8471 6.188 10.9806C6.32107 11.114 6.49044 11.1868 6.67795 11.1868H12.6724C13.0535 11.1868 13.362 10.8714 13.362 10.477V8.49932ZM6.67795 32.9902C6.29688 32.9902 5.98838 33.3057 5.98838 33.6939V35.6777C5.98838 35.8597 6.06097 36.0417 6.188 36.1752C6.31502 36.3087 6.49649 36.3815 6.67795 36.3815H12.6724C13.0535 36.3815 13.362 36.066 13.362 35.6717V33.6879C13.362 33.2936 13.0595 32.9781 12.6724 32.9781H6.67795V32.9902ZM37.5816 20.675C35.7246 20.675 33.9947 21.2574 32.5732 22.2463C32.5732 22.2463 32.5671 22.2463 32.5671 22.2523C31.7626 22.7559 30.3351 22.6649 29.2886 22.6042C28.2906 22.5496 27.4256 23.3079 27.3651 24.3089C27.3363 24.7906 27.499 25.2641 27.8176 25.6257C28.1362 25.9873 28.5847 26.2075 29.0648 26.2381L29.3915 26.2563C28.9922 27.2694 28.7624 28.3675 28.7624 29.5201C28.7624 32.1712 29.9359 34.5433 31.7868 36.1691C27.8551 38.256 25.1633 42.4056 25.1633 47.18C25.1633 48.1871 25.9739 49 26.978 49C27.9821 49 28.7926 48.1871 28.7926 47.18C28.7926 42.3207 32.7365 38.3652 37.5877 38.3652C42.451 38.3652 46.4009 34.3977 46.4009 29.5262C46.4009 24.6547 42.4449 20.675 37.5816 20.675ZM37.5816 34.7192C34.7205 34.7192 32.3978 32.3836 32.3978 29.5201C32.3978 26.6567 34.7266 24.321 37.5816 24.321C40.4367 24.321 42.7655 26.6567 42.7655 29.5201C42.7655 32.3836 40.4428 34.7192 37.5816 34.7192ZM47.1328 39.2085C46.8243 38.8376 46.3818 38.6044 45.9022 38.56C45.4226 38.5157 44.9451 38.6638 44.5741 38.9719C44.2043 39.2813 43.9718 39.7251 43.9276 40.2061C43.8833 40.6871 44.031 41.1661 44.3382 41.5381C45.6508 43.1154 46.3706 45.1174 46.3706 47.18C46.3706 48.1871 47.1812 49 48.1853 49C49.1894 49 50 48.1871 50 47.18C50.006 44.268 48.9838 41.441 47.1328 39.2085Z" fill="black"/>
</svg>
