<svg width="35" height="22" viewBox="0 0 35 22" fill="none" xmlns="http://www.w3.org/2000/svg">
<path d="M21.032 16.522L16.522 21.032C15.994 21.56 14.938 22 14.19 22H7.81C7.062 22 6.006 21.56 5.478 21.032L0.968 16.522C0.44 15.994 0 14.938 0 14.19V7.81C0 7.062 0.44 6.006 0.968 5.478L5.478 0.967999C6.006 0.439999 7.062 -4.76837e-07 7.81 -4.76837e-07H14.19C14.938 -4.76837e-07 15.994 0.439999 16.522 0.967999L21.032 5.478C21.56 6.006 22 7.062 22 7.81V14.19C22 14.938 21.56 15.994 21.032 16.522ZM15.433 7.733C15.752 7.414 15.752 6.886 15.433 6.567C15.268 6.402 15.059 6.325 14.85 6.325C14.641 6.325 14.432 6.402 14.267 6.567L11 9.834L7.733 6.567C7.568 6.402 7.359 6.325 7.15 6.325C6.941 6.325 6.732 6.402 6.567 6.567C6.248 6.886 6.248 7.414 6.567 7.733L9.834 11L6.567 14.267C6.248 14.586 6.248 15.114 6.567 15.433C6.886 15.752 7.414 15.752 7.733 15.433L11 12.166L14.267 15.433C14.586 15.752 15.114 15.752 15.433 15.433C15.752 15.114 15.752 14.586 15.433 14.267L12.166 11L15.433 7.733Z" fill="#292D32" fill-opacity="0.65"/>
</svg>
