<svg width="35" height="20" viewBox="0 0 35 20" fill="none" xmlns="http://www.w3.org/2000/svg">
<path d="M21.436 4.01057C21.0727 3.3154 20.5277 2.67371 19.8616 2.0855C18.2872 0.695165 16.2284 0 14.109 0C12.0502 0 9.93079 0.695165 8.3564 2.0855C6.78201 3.47583 5.99481 5.29395 5.99481 7.16555C5.99481 8.55588 6.47924 9.94621 7.38754 11.1761L0 17.6465L2.17993 19.5716L2.60381 19.1972L9.62803 13.0477C11.0208 13.8498 12.5952 14.2776 14.1695 14.2776C16.2284 14.2776 18.3478 13.5825 19.9221 12.1921C20.7093 11.497 21.3149 10.6414 21.7388 9.73231H35V4.01057H21.436ZM8.65917 12.406L2.24048 18.0743L1.75606 17.6465L8.17474 11.9782L8.65917 12.406ZM19.0138 11.4435C17.6817 12.6199 15.9256 13.2081 14.109 13.2081C12.3529 13.2081 10.5969 12.6199 9.20415 11.4435C7.87197 10.2671 7.20588 8.7163 7.20588 7.11207C7.20588 5.56132 7.87197 4.01057 9.20415 2.78066C10.5363 1.60423 12.2924 1.01601 14.109 1.01601C15.8651 1.01601 17.6211 1.60423 19.0138 2.78066C20.346 3.95709 21.0121 5.50785 21.0121 7.11207C21.0121 8.7163 20.346 10.2671 19.0138 11.4435ZM33.7889 8.66283H22.0415C22.1626 8.12808 22.2232 7.64681 22.2232 7.11207C22.2232 6.41691 22.1021 5.72174 21.8599 5.02658H33.7284V8.66283H33.7889Z" fill="#272B31"/>
<path d="M29.0653 10.4809H21.6777V11.5504H29.0653V10.4809Z" fill="#272B31"/>
<path d="M20.384 10.514L17.514 13.384C17.178 13.72 16.506 14 16.03 14H11.97C11.494 14 10.822 13.72 10.486 13.384L7.616 10.514C7.28 10.178 7 9.506 7 9.03V4.97C7 4.494 7.28 3.822 7.616 3.486L10.486 0.616C10.822 0.28 11.494 2.38419e-07 11.97 2.38419e-07H16.03C16.506 2.38419e-07 17.178 0.28 17.514 0.616L20.384 3.486C20.72 3.822 21 4.494 21 4.97V9.03C21 9.506 20.72 10.178 20.384 10.514ZM16.821 4.921C17.024 4.718 17.024 4.382 16.821 4.179C16.716 4.074 16.583 4.025 16.45 4.025C16.317 4.025 16.184 4.074 16.079 4.179L14 6.258L11.921 4.179C11.816 4.074 11.683 4.025 11.55 4.025C11.417 4.025 11.284 4.074 11.179 4.179C10.976 4.382 10.976 4.718 11.179 4.921L13.258 7L11.179 9.079C10.976 9.282 10.976 9.618 11.179 9.821C11.382 10.024 11.718 10.024 11.921 9.821L14 7.742L16.079 9.821C16.282 10.024 16.618 10.024 16.821 9.821C17.024 9.618 17.024 9.282 16.821 9.079L14.742 7L16.821 4.921Z" fill="#272B31" fill-opacity="0.85"/>
</svg>
