<svg width="23" height="23" viewBox="0 0 23 23" fill="none" xmlns="http://www.w3.org/2000/svg">
<path d="M16.5781 7.94444H14.8777V13H12.7523V21.3056H10.2018V13H8.07633V7.94444H6.37598V14.4444H8.50141V22.75H14.4526V14.4444H16.5781V7.94444Z" fill="black"/>
<path d="M8.50195 2.52778C8.50195 3.91806 9.84098 5.05556 11.4776 5.05556C13.1142 5.05556 14.4532 3.91806 14.4532 2.52778C14.4532 1.1375 13.1142 0 11.4776 0C9.84098 0 8.50195 1.1375 8.50195 2.52778ZM12.7528 2.52778C12.7528 3.12361 12.179 3.61111 11.4776 3.61111C10.7762 3.61111 10.2023 3.12361 10.2023 2.52778C10.2023 1.93194 10.7762 1.44444 11.4776 1.44444C12.179 1.44444 12.7528 1.93194 12.7528 2.52778Z" fill="black"/>
<path d="M1.27539 4.33333C1.27539 5.72361 2.61442 6.86111 4.251 6.86111C5.88759 6.86111 7.22662 5.72361 7.22662 4.33333C7.22662 2.94305 5.88759 1.80555 4.251 1.80555C2.61442 1.80555 1.27539 2.94305 1.27539 4.33333ZM5.52627 4.33333C5.52627 4.92916 4.9524 5.41666 4.251 5.41666C3.54961 5.41666 2.97574 4.92916 2.97574 4.33333C2.97574 3.73749 3.54961 3.24999 4.251 3.24999C4.9524 3.24999 5.52627 3.73749 5.52627 4.33333Z" fill="black"/>
<path d="M21.2537 14.8056H19.1282V21.3056H15.7275V22.75H20.8286V16.25H22.954V9.02778H21.2537V14.8056Z" fill="black"/>
<path d="M15.7275 4.33333C15.7275 5.72361 17.0666 6.86111 18.7032 6.86111C20.3397 6.86111 21.6788 5.72361 21.6788 4.33333C21.6788 2.94305 20.3397 1.80555 18.7032 1.80555C17.0666 1.80555 15.7275 2.94305 15.7275 4.33333ZM18.7032 3.24999C19.4045 3.24999 19.9784 3.73749 19.9784 4.33333C19.9784 4.92916 19.4045 5.41666 18.7032 5.41666C18.0018 5.41666 17.4279 4.92916 17.4279 4.33333C17.4279 3.73749 18.0018 3.24999 18.7032 3.24999Z" fill="black"/>
<path d="M3.82579 14.8056H1.70035V9.02778H0V16.25H2.12544V22.75H7.22649V21.3056H3.82579V14.8056Z" fill="black"/>
</svg>
