<svg width="29" height="26" viewBox="0 0 29 26" fill="none" xmlns="http://www.w3.org/2000/svg">
<path d="M20.9439 9.00944H18.7957V14.7257H16.1104V24.1168H12.8881V14.7257H10.2029V9.00944H8.05469V16.3589H10.7399V25.75H18.2586V16.3589H20.9439V9.00944Z" fill="black"/>
<path d="M10.7412 2.88485C10.7412 4.45682 12.4329 5.74299 14.5006 5.74299C16.5682 5.74299 18.2599 4.45682 18.2599 2.88485C18.2599 1.31287 16.5682 0.0267029 14.5006 0.0267029C12.4329 0.0267029 10.7412 1.31287 10.7412 2.88485ZM16.1117 2.88485C16.1117 3.55855 15.3867 4.10976 14.5006 4.10976C13.6144 4.10976 12.8894 3.55855 12.8894 2.88485C12.8894 2.21114 13.6144 1.65993 14.5006 1.65993C15.3867 1.65993 16.1117 2.21114 16.1117 2.88485Z" fill="black"/>
<path d="M1.61133 4.92637C1.61133 6.49835 3.30304 7.78452 5.37068 7.78452C7.43832 7.78452 9.13003 6.49835 9.13003 4.92637C9.13003 3.35439 7.43832 2.06823 5.37068 2.06823C3.30304 2.06823 1.61133 3.35439 1.61133 4.92637ZM6.98183 4.92637C6.98183 5.60008 6.25681 6.15129 5.37068 6.15129C4.48455 6.15129 3.75953 5.60008 3.75953 4.92637C3.75953 4.25267 4.48455 3.70145 5.37068 3.70145C6.25681 3.70145 6.98183 4.25267 6.98183 4.92637Z" fill="black"/>
<path d="M26.8518 16.7673H24.1665V24.1168H19.8701V25.75H26.3147V18.4005H29V10.2344H26.8518V16.7673Z" fill="black"/>
<path d="M19.8701 4.92637C19.8701 6.49835 21.5618 7.78452 23.6295 7.78452C25.6971 7.78452 27.3888 6.49835 27.3888 4.92637C27.3888 3.35439 25.6971 2.06823 23.6295 2.06823C21.5618 2.06823 19.8701 3.35439 19.8701 4.92637ZM23.6295 3.70145C24.5156 3.70145 25.2406 4.25267 25.2406 4.92637C25.2406 5.60008 24.5156 6.15129 23.6295 6.15129C22.7433 6.15129 22.0183 5.60008 22.0183 4.92637C22.0183 4.25267 22.7433 3.70145 23.6295 3.70145Z" fill="black"/>
<path d="M4.83345 16.7673H2.1482V10.2344H0V18.4005H2.68525V25.75H9.12985V24.1168H4.83345V16.7673Z" fill="black"/>
</svg>
