<svg width="59" height="38" viewBox="0 0 59 38" fill="none" xmlns="http://www.w3.org/2000/svg">
<path d="M23.8859 3.06229C21.2319 3.06229 18.4759 4.08305 16.4344 6.12457C14.3928 8.16609 13.3721 10.8201 13.3721 13.5761C13.3721 16.2301 14.3928 18.9862 16.4344 21.0277C18.4759 23.0692 21.1299 24.09 23.8859 24.09C26.5399 24.09 29.2959 23.0692 31.3375 21.0277C33.379 18.9862 34.3997 16.3322 34.3997 13.5761C34.3997 10.9221 33.379 8.16609 31.3375 6.12457C29.1939 4.18512 26.5399 3.06229 23.8859 3.06229ZM23.8859 22.0484C21.7423 22.0484 19.5987 21.2318 17.8634 19.5986C16.2302 17.9654 15.4136 15.8218 15.4136 13.5761C15.4136 11.4325 16.2302 9.28893 17.8634 7.55363C19.4966 5.92042 21.6402 5.10381 23.8859 5.10381C26.0295 5.10381 28.1731 5.92042 29.9084 7.55363H22.8651V18.5779H30.725C30.5209 18.8841 30.2146 19.2924 29.9084 19.5986C28.1731 21.2318 26.0295 22.0484 23.8859 22.0484ZM31.7458 16.5363H24.8046V9.59516H31.2354C31.8478 10.8201 32.2561 12.1471 32.2561 13.5761C32.3582 14.5969 32.1541 15.6176 31.7458 16.5363Z" fill="black"/>
<path d="M36.1349 7.65571C35.5225 6.32872 34.6038 5.10381 33.481 3.98097C30.827 1.32699 27.3564 0 23.7837 0C20.3131 0 16.7405 1.32699 14.0865 3.98097C11.4325 6.63495 10.1055 10.1055 10.1055 13.6782C10.1055 16.3322 10.9221 18.9862 12.4533 21.3339L0 33.6851L3.67474 37.3599L4.38927 36.6453L16.2301 24.9066C18.5779 26.4377 21.2318 27.2543 23.8858 27.2543C27.3564 27.2543 30.9291 25.9273 33.583 23.2734C34.91 21.9464 35.9308 20.3131 36.6453 18.5779H59V7.65571H36.1349ZM14.5969 23.6817L3.77682 34.5017L2.96021 33.6851L13.7803 22.865L14.5969 23.6817ZM32.0519 21.8443C29.8062 24.09 26.846 25.2128 23.7837 25.2128C20.8235 25.2128 17.8633 24.09 15.5156 21.8443C13.2699 19.5986 12.1471 16.6384 12.1471 13.5761C12.1471 10.6159 13.2699 7.65571 15.5156 5.30796C17.7612 3.06228 20.7215 1.93945 23.7837 1.93945C26.7439 1.93945 29.7041 3.06228 32.0519 5.30796C34.2976 7.55363 35.4204 10.5138 35.4204 13.5761C35.4204 16.6384 34.2976 19.5986 32.0519 21.8443ZM56.9585 16.5363H37.1557C37.3599 15.5156 37.4619 14.5969 37.4619 13.5761C37.4619 12.2491 37.2578 10.9221 36.8495 9.59515H56.8564V16.5363H56.9585Z" fill="black"/>
<path d="M48.9963 20.0069H36.543V22.0484H48.9963V20.0069Z" fill="black"/>
</svg>
