<svg width="450" height="823" viewBox="0 0 450 823" fill="none" xmlns="http://www.w3.org/2000/svg">
<path d="M28.0169 0.995774C17.9344 3.76063 9.03437 11.3479 4.491 21.1857C-0.425793 31.795 0.00987287 -7.10594 0.00987287 411.481C0.00987287 829.875 -0.425793 791.167 4.491 801.712C7.72738 808.656 14.5113 816.05 20.5484 819.008C29.1995 823.316 12.333 822.995 225 822.995C437.667 822.995 420.801 823.316 429.452 819.008C435.489 816.05 442.273 808.656 445.509 801.712C450.426 791.167 449.99 829.875 449.99 411.481C449.99 -7.10594 450.426 31.795 445.509 21.1857C442.273 14.1771 435.551 6.97558 429.452 3.95353C420.801 -0.354506 437.729 -0.0330109 224.689 0.0312881C57.8912 0.0312881 30.9421 0.159886 28.0169 0.995774ZM424.473 394.763V709.828H225H25.5274V394.763V79.6978H225H424.473V394.763Z" fill="black"/>
</svg>
