<svg width="488" height="650" viewBox="0 0 488 650" fill="none" xmlns="http://www.w3.org/2000/svg">
<path fill-rule="evenodd" clip-rule="evenodd" d="M132.5 0.999998C135.417 2.253 402.725 2.253 403.5 0.999998C403.911 0.334998 358.278 0.0239979 267.309 0.0699979C190.065 0.109998 131.371 0.514998 132.5 0.999998ZM61.9996 2.469C44.6466 6.459 32.7256 13.036 22.3756 24.331C15.1026 32.268 9.74965 42.719 6.32865 55.661C3.83265 65.106 3.70965 66.861 3.25465 99.5C2.86665 127.368 2.52665 133.646 1.36965 134.311C0.592649 134.758 0.222649 135.553 0.547649 136.078C0.872649 136.603 1.50865 136.803 1.96165 136.523C3.34365 135.67 3.84365 139.92 3.92265 153.17C3.99865 165.95 3.53465 169.448 1.89465 168.435C1.40265 168.131 0.999649 168.557 0.999649 169.382C0.999649 170.207 1.44965 171.16 1.99965 171.5C2.59865 171.87 2.99965 178.491 2.99965 188C2.99965 197.509 2.59865 204.13 1.99965 204.5C0.364649 205.51 0.807649 208.288 2.49965 207.638C3.81465 207.134 3.99965 211.189 3.99965 240.5C3.99965 269.811 3.81465 273.866 2.49965 273.362C0.807649 272.712 0.364649 275.49 1.99965 276.5C3.30465 277.306 3.30465 294.694 1.99965 295.5C0.364649 296.51 0.807649 299.288 2.49965 298.638C3.81465 298.134 3.99965 302.189 3.99965 331.5C3.99965 360.811 3.81465 364.866 2.49965 364.362C0.837649 363.724 0.416649 365.522 1.99965 366.5C2.65865 366.907 2.99965 415.177 2.99965 508.059C2.99965 601.353 3.33765 649 3.99965 649C4.89165 649 6.00765 112.889 5.15465 94.2C4.70365 84.32 6.83365 63.058 9.08965 54.917C11.2606 47.082 15.6166 38.154 19.2936 34C20.5106 32.625 23.7517 29.7 26.4967 27.5L31.4876 23.5L27.1946 28.446C22.1136 34.301 15.6256 47.107 13.5096 55.458C12.6796 58.735 11.5506 66.16 11.0006 71.958C10.3616 78.697 10.0006 184.677 10.0006 365.75L9.99965 649H12.4846H14.9696L15.2786 357.75C15.5626 89.969 15.7216 65.966 17.2536 59.87C21.3276 43.65 29.1986 31.693 40.9996 23.797L45.4996 20.786L41.4996 24.643C35.2816 30.639 30.5596 36.954 27.4246 43.466C25.8456 46.747 24.4796 49.897 24.3896 50.466C24.2996 51.035 23.5266 53.975 22.6706 57C21.8156 60.025 20.8136 65.425 20.4446 69C20.0756 72.575 19.7696 204.425 19.7646 362L19.7556 648.5L26.3776 648.796L32.9996 649.091V359.095C32.9996 150.516 33.3116 67.611 34.1096 63.799C35.8126 55.664 41.5637 45.536 47.3587 40.467C53.1367 35.412 62.0087 31.529 71.1757 30.041C78.8507 28.796 122.948 28.681 124.874 29.901C125.63 30.38 126.843 34.191 127.57 38.37C128.297 42.55 129.634 47.533 130.541 49.445C132.83 54.268 140.031 60.637 144.645 61.919C147.265 62.646 180.618 62.991 248.782 62.994C357.651 63 352.017 63.276 359.472 57.589C364.204 53.98 367.964 46.191 368.681 38.511C369.646 28.174 370.065 27.993 392.885 28.032C419.374 28.077 433.768 30.323 443 35.854C450.995 40.643 457.862 49.779 461.826 60.901C463.328 65.116 463.489 89.875 463.749 357.25L464.033 649H470.523H477.013L476.939 362.25C476.861 60.569 476.942 66.348 472.609 52.75C471.777 50.137 471.412 47.993 471.798 47.985C472.184 47.976 472.05 47.639 471.5 47.235C470.95 46.831 469.15 43.8 467.5 40.5C465.762 37.023 461.681 31.649 457.797 27.721C452.914 22.783 451.95 21.426 454.244 22.721C459.609 25.751 469.344 36.206 472.694 42.535C476.079 48.931 479.437 60.14 480.504 68.607C481.469 76.257 481.898 182.768 481.951 428.25C482 648.859 482.001 649 484.015 649H486.03L485.765 356.25L485.5 63.5L483.208 55.641C479.912 44.343 474.625 34.517 468.144 27.645C462.449 21.607 462.63 21.226 468.961 25.929C475.5 30.787 480.201 36.514 484.204 44.5C487.113 50.305 488.045 51.565 487.6 49.091C485.754 38.836 472.748 20.653 462.737 14.334C453.703 8.631 442.64 4.026 441.269 5.398C440.938 5.729 441.227 6 441.911 6C443.833 6 458.577 13.308 457.428 13.691C455.749 14.25 445.013 12.274 436.5 9.837L428.5 7.547L253.5 7.233C130.908 7.012 75.9947 7.245 70.1347 8.011C65.5347 8.613 58.3346 10.168 54.1346 11.468C49.9356 12.768 44.4746 14.113 41.9996 14.458L37.4996 15.085L41.4996 12.536C48.2436 8.239 57.7396 5.253 74.4996 2.159L79.4996 1.236L73.4996 1.221C70.1996 1.212 65.0246 1.774 61.9996 2.469ZM419.083 1.385C419.313 1.596 423.117 2.249 427.538 2.835C431.959 3.421 436.347 4.196 437.288 4.557C438.23 4.918 439 4.818 439 4.335C439 3.287 427.591 0.999998 422.36 0.999998C420.328 0.999998 418.854 1.173 419.083 1.385ZM1.44165 240C1.44165 256.225 1.57965 262.863 1.74765 254.75C1.91565 246.637 1.91565 233.362 1.74765 225.25C1.57965 217.137 1.44165 223.775 1.44165 240ZM1.44065 331C1.44065 346.675 1.57865 353.087 1.74765 345.25C1.91665 337.412 1.91665 324.587 1.74765 316.75C1.57865 308.912 1.44065 315.325 1.44065 331Z" fill="black"/>
</svg>
