<svg width="491" height="988" viewBox="0 0 491 988" fill="none" xmlns="http://www.w3.org/2000/svg">
<path fill-rule="evenodd" clip-rule="evenodd" d="M132.104 0.929802C135.021 2.17658 402.397 2.17658 403.173 0.929802C403.584 0.268107 357.939 -0.0413473 266.947 0.00442409C189.683 0.0442253 130.974 0.447213 132.104 0.929802ZM61.5856 2.3915C44.2282 6.36167 32.3042 12.906 21.9516 24.1449C14.6767 32.0424 9.32234 42.4415 5.90046 55.3192C3.40383 64.7172 3.2808 66.4635 2.82568 98.9403C2.43758 126.67 2.0975 132.917 0.940201 133.578C0.163003 134.023 -0.207091 134.814 0.117992 135.337C0.443075 135.859 1.07924 136.058 1.53235 135.779C2.9147 134.931 3.41483 139.159 3.49385 152.344C3.56987 165.06 3.10575 168.541 1.46534 167.533C0.97321 167.23 0.570107 167.654 0.570107 168.475C0.570107 169.296 1.02022 170.244 1.57036 170.582C2.16951 170.951 2.57062 177.539 2.57062 187.001C2.57062 196.462 2.16951 203.05 1.57036 203.419C-0.065055 204.423 0.378058 207.188 2.07049 206.541C3.38582 206.039 3.57087 210.074 3.57087 239.24C3.57087 268.405 3.38582 272.44 2.07049 271.938C0.378058 271.292 -0.065055 274.056 1.57036 275.061C2.87569 275.863 2.87569 293.164 1.57036 293.966C-0.065055 294.971 0.378058 297.735 2.07049 297.089C3.38582 296.587 3.57087 300.622 3.57087 329.787C3.57087 358.953 3.38582 362.988 2.07049 362.486C0.379058 361.84 0.0589764 363.209 1.55336 364.696C2.19052 365.33 2.62963 463.311 2.80368 643.752L3.07074 921.83L5.79844 931.668C12.5472 956.006 24.3452 969.937 46.4378 979.657C52.4553 982.304 59.8702 984.29 59.098 983.046C58.8389 982.629 57.2335 982.01 55.5301 981.671C51.266 980.823 38.7248 974.71 35.0789 971.703L32.0781 969.229L36.5793 970.194C39.0549 970.724 44.3863 972.515 48.4253 974.174C63.5261 980.373 62.969 980.335 143.607 980.711C208.266 981.013 291.488 980.045 268.888 979.254C264.349 979.095 260.636 978.591 260.636 978.135C260.636 977.679 264.07 977.266 268.267 977.217C272.465 977.168 276.141 976.889 276.436 976.594C276.732 976.3 256.118 976.06 230.629 976.06C205.139 976.06 184.582 975.763 184.947 975.4C185.311 975.037 198.778 974.637 214.871 974.51C244.37 974.28 262.911 973.245 276.559 971.068C285.133 969.7 299.831 970.576 305.648 972.801C308.537 973.906 310.266 974.069 325.653 974.679C334.18 975.017 341.345 975.466 341.574 975.677C341.803 975.888 331 976.12 317.568 976.195C304.135 976.27 294.157 976.524 295.395 976.762C298.527 977.362 298.22 979.045 294.978 979.045C293.512 979.045 292.605 979.338 292.967 979.697C294.065 980.79 407.417 980.962 416.676 979.885C421.352 979.34 426.754 978.777 428.679 978.633C435.337 978.132 440.219 976.764 449.184 972.886C454.136 970.745 459.681 968.834 461.509 968.639C464.762 968.291 464.793 968.324 463.036 970.257C462.049 971.341 459.991 972.964 458.464 973.862C454.06 976.45 455.24 977.185 459.913 974.766C466.244 971.489 477.809 959.597 481.88 952.179C485.721 945.179 488.983 935.838 490.479 927.552C491.801 920.228 490.37 921.003 488.824 928.448C486.731 938.531 480.962 948.848 473.608 955.662C470.803 958.26 469.894 958.778 470.988 957.154C475.983 949.738 479.874 941.753 482.381 933.771L485.194 924.816V494.465V64.1142L482.916 55.8256C479.77 44.3828 474.511 34.4862 467.833 27.4424C462.137 21.4344 462.318 21.0553 468.65 25.7349C475.191 30.5688 479.893 36.2673 483.897 44.2136C486.807 49.9898 487.739 51.2435 487.294 48.7818C485.448 38.5778 472.438 20.4851 462.425 14.1975C453.388 8.52288 442.323 3.94076 440.951 5.30595C440.62 5.6353 440.909 5.90495 441.593 5.90495C443.516 5.90495 458.264 13.1766 457.114 13.5577C455.435 14.114 444.696 12.1478 436.181 9.72289L428.179 7.44427L253.134 7.13183C130.511 6.91193 75.5842 7.14377 69.7227 7.90596C65.1215 8.50497 57.9197 10.0522 53.7186 11.3458C49.5186 12.6393 44.0562 13.9776 41.5806 14.3209L37.0794 14.9448L41.0804 12.4085C47.8261 8.13283 57.3246 5.16167 74.0888 2.08304L79.0901 1.16463L73.0886 1.1497C69.7877 1.14075 64.6114 1.69996 61.5856 2.3915ZM418.76 1.31289C418.99 1.52284 422.795 2.1726 427.217 2.75568C431.639 3.33877 436.028 4.10992 436.969 4.46913C437.912 4.82833 438.682 4.72883 438.682 4.24823C438.682 3.20544 427.27 0.929802 422.037 0.929802C420.005 0.929802 418.531 1.10194 418.76 1.31289ZM41.0804 24.5737C35.0289 30.1986 30.1906 36.5957 27.0018 43.1848C25.4224 46.4495 24.0561 49.5838 23.9661 50.15C23.876 50.7161 23.1028 53.6415 22.2466 56.6515C21.3914 59.6615 20.3902 65.0346 20.0231 68.5919C19.2119 76.4357 19.2219 904.995 20.0331 914.865C20.3481 918.696 20.8633 923.398 21.1794 925.313C21.4944 927.229 21.7875 929.356 21.8305 930.039C21.8735 930.724 22.2836 931.283 22.7428 931.283C23.2009 931.283 23.576 932.392 23.576 933.747C23.576 938.728 33.7236 955.705 39.8971 961.053C40.8964 961.918 43.147 963.922 44.8984 965.506L48.0822 968.387L43.5811 966.004C41.1054 964.693 36.1182 960.711 32.4992 957.154C24.8953 949.681 20.7072 941.991 17.3264 929.293L15.0738 920.835V494.465C15.0738 95.0915 15.1828 67.6088 16.7922 60.4316C20.4622 44.0644 28.1021 32.2882 41.0004 23.118C45.5576 19.8782 45.5856 20.3866 41.0804 24.5737ZM463.135 30.2832C473.946 40.944 479.168 54.3998 480.593 75.2695C481.962 95.2995 481.329 916.905 479.94 923.323C475.554 943.601 467.296 956.689 453.597 965.074C448.549 968.163 446.552 967.728 451.369 964.589C461.873 957.742 472.376 940.154 474.296 926.199C474.513 924.617 475.013 921.868 475.407 920.089C475.801 918.31 476.225 727.451 476.349 495.957C476.588 51.0793 476.727 66.2456 472.299 52.4226C471.467 49.8236 471.102 47.6893 471.488 47.6813C471.874 47.6724 471.74 47.337 471.19 46.935C470.64 46.533 468.839 43.5171 467.189 40.2335C465.451 36.7738 461.368 31.4265 457.483 27.518C452.599 22.6046 451.635 21.2543 453.93 22.5429C455.662 23.517 459.805 26.9996 463.135 30.2832ZM26.6127 28.4882C21.6885 34.0544 15.1898 46.8505 13.0703 55.159C12.2321 58.4426 11.0848 66.2784 10.5196 72.572C9.83147 80.2447 9.59841 221.88 9.81246 502.425C10.1165 902.501 10.2106 921.163 11.945 928.296C14.3076 938.013 17.7645 946.381 22.2226 953.174L25.8145 958.647L20.6222 953.671C14.8237 948.115 8.54314 936.434 6.4456 927.303C4.77518 920.033 3.89895 95.2885 5.54037 75.0039C7.57289 49.8763 13.1403 37.4693 27.577 25.8882C31.3329 22.8742 31.1549 23.3558 26.6127 28.4882ZM421.177 29.2086C435.614 31.1568 441.624 33.7499 450.017 41.6524C454.906 46.2554 458.518 52.1838 461.519 60.5331C463.034 64.7481 463.185 98.4806 463.437 487.8C463.735 948.237 464.042 922.363 458.147 934.759C453.066 945.442 443.302 953.068 429.946 956.786C424.728 958.239 407.386 958.376 248.133 958.232C58.849 958.06 65.5657 958.24 55.3861 953.073C49.6066 950.14 41.4145 942.178 38.2777 936.443C32.1211 925.193 32.5783 960.617 32.5783 494.305C32.5783 186.363 32.8853 67.2317 33.6885 63.4167C35.392 55.3221 41.1444 45.2445 46.9409 40.2007C52.7204 35.1708 61.5947 31.3071 70.764 29.8265C78.4409 28.5877 122.549 28.4732 124.476 29.6872C125.232 30.1638 126.445 33.9559 127.172 38.1141C127.9 42.2733 129.237 47.2316 130.144 49.1341C132.434 53.9331 139.637 60.2704 144.252 61.5461C146.872 62.2694 180.234 62.6127 248.415 62.6157C357.312 62.6217 351.677 62.8963 359.133 57.2376C363.867 53.6465 367.628 45.8962 368.345 38.2544C369.31 27.9688 369.729 27.7887 392.555 27.8275C402.796 27.8444 415.676 28.4663 421.177 29.2086ZM1.01222 238.742C1.01222 254.886 1.15025 261.491 1.3183 253.419C1.48634 245.346 1.48634 232.137 1.3183 224.065C1.15025 215.993 1.01222 222.598 1.01222 238.742ZM1.01122 329.29C1.01122 344.887 1.14925 351.267 1.3183 343.469C1.48734 335.67 1.48734 322.909 1.3183 315.111C1.14925 307.312 1.01122 313.693 1.01122 329.29ZM248.633 978.216C248.633 978.672 247.706 979.045 246.574 979.045C245.441 979.045 244.746 978.672 245.029 978.216C245.7 977.137 248.633 977.137 248.633 978.216ZM258.636 978.111C258.636 978.625 256.722 979 254.385 978.945C250.956 978.866 250.617 978.711 252.634 978.149C256.43 977.089 258.636 977.077 258.636 978.111ZM81.0906 987.005C84.0064 988.252 218.626 988.252 218.626 987.005C218.626 986.35 194.75 986.034 148.858 986.08C108.999 986.119 79.9473 986.516 81.0906 987.005ZM333.31 987.239C332.675 987.641 333.843 987.976 335.906 987.985C337.969 987.993 339.656 987.665 339.656 987.254C339.656 986.294 334.821 986.282 333.31 987.239ZM340.657 987.005C340.657 987.552 341.107 988 341.657 988C342.207 988 342.657 987.552 342.657 987.005C342.657 986.458 342.207 986.01 341.657 986.01C341.107 986.01 340.657 986.458 340.657 987.005ZM348.659 987.253C348.659 987.664 351.359 988 354.66 988C357.961 988 360.662 987.599 360.662 987.108C360.662 986.619 357.961 986.283 354.66 986.361C351.359 986.44 348.659 986.841 348.659 987.253Z" fill="black"/>
</svg>
