<svg width="21" height="29" viewBox="0 0 21 29" fill="none" xmlns="http://www.w3.org/2000/svg">
<path d="M18.0468 17.3987C19.6778 17.3987 21 18.8593 21 20.6611V21.9734C21 23.5592 20.3733 25.066 19.2842 26.0989C17.2294 28.0476 14.2889 29 10.4957 29C6.70309 29 3.76455 28.048 1.71323 26.0997C0.625629 25.0667 0 23.5611 0 21.9766V20.6611C0 18.8593 1.3222 17.3987 2.95322 17.3987H18.0468ZM10.3625 0.00992738L10.4961 0C10.9945 0 11.4063 0.409112 11.4715 0.939906L11.4805 1.08747L11.4795 2.17349L16.074 2.17422C17.705 2.17422 19.0272 3.63485 19.0272 5.43663V11.9681C19.0272 13.7699 17.705 15.2305 16.074 15.2305H4.91738C3.28636 15.2305 1.96416 13.7699 1.96416 11.9681V5.43663C1.96416 3.63485 3.28636 2.17422 4.91738 2.17422L9.51067 2.17349L9.5117 1.08747C9.5117 0.536926 9.88204 0.0819358 10.3625 0.00992738ZM7.54153 6.5241C6.63592 6.5241 5.90178 7.33509 5.90178 8.33551C5.90178 9.33593 6.63592 10.1469 7.54153 10.1469C8.44713 10.1469 9.18127 9.33593 9.18127 8.33551C9.18127 7.33509 8.44713 6.5241 7.54153 6.5241ZM13.4384 6.5241C12.5328 6.5241 11.7987 7.33509 11.7987 8.33551C11.7987 9.33593 12.5328 10.1469 13.4384 10.1469C14.344 10.1469 15.0782 9.33593 15.0782 8.33551C15.0782 7.33509 14.344 6.5241 13.4384 6.5241Z" fill="#C5CAD4"/>
</svg>
