<svg width="100" height="100" viewBox="0 0 100 100" fill="none" xmlns="http://www.w3.org/2000/svg">
<path d="M91.8062 66.6822C92.1257 67.3554 91.6942 68.1326 90.9919 68.1489L70.3928 68.6252C69.6236 68.643 69.1158 67.75 69.5008 67.0566L80.7279 46.835C81.1129 46.1415 82.0843 46.1996 82.4342 46.9369L91.8062 66.6822Z" fill="white"/>
<ellipse cx="41.8584" cy="38.5422" rx="36.8179" ry="33.9684" fill="#262626"/>
<path d="M38.4362 8.40428C37.5375 8.52534 36.174 8.75234 35.4148 8.91881C34.6556 9.08527 33.354 9.4182 32.5483 9.66034C31.7426 9.9176 30.5185 10.3262 29.8367 10.5986C29.155 10.871 28.1788 11.2947 27.6675 11.5369C27.1562 11.7941 26.211 12.3087 25.5757 12.687C24.9405 13.0805 23.8868 13.7463 23.2515 14.2003C22.6163 14.6392 21.4697 15.532 20.7104 16.1676C19.9667 16.8032 18.7891 17.9382 18.1228 18.6949C17.4566 19.4516 16.4184 20.7379 15.7986 21.5702C15.1944 22.4026 14.2647 23.8705 13.7379 24.8239C13.1956 25.7773 12.4983 27.1695 12.2039 27.9262C11.894 28.6677 11.3982 30.1054 11.1193 31.1042C10.8249 32.103 10.4685 33.5709 10.3291 34.3578C10.1896 35.1448 9.86199 36.2183 9.86199 36.7934C9.86199 37.6079 9.64133 38.4067 9.97156 38.5952C10.0264 38.5952 10.441 38.6036 10.5194 38.5952C10.7934 38.5952 11.1968 38.5952 11.3207 38.5952C11.4447 38.5952 11.7081 38.459 11.894 38.2925C12.0954 38.126 12.1223 37.9411 12.1729 37.8385C12.2179 37.7473 12.1729 37.8385 12.2504 37.6569C12.3279 37.6266 12.4983 36.8246 12.6223 35.8712C12.7617 34.9178 13.1181 33.2834 13.4125 32.2392C13.7224 31.195 14.1562 29.9087 14.3731 29.3639C14.5901 28.8191 15.0394 27.8657 15.3493 27.2452C15.6747 26.6247 16.3255 25.4595 16.8213 24.6725C17.3016 23.8856 18.0918 22.7204 18.5722 22.0999C19.0525 21.4794 20.3231 20.1174 21.3922 19.0732C22.4613 18.029 23.9953 16.7276 24.801 16.1676C25.6067 15.5926 27.3886 14.5938 28.7521 13.9431C30.1156 13.2923 31.7891 12.5659 32.4708 12.3389C33.1526 12.1119 34.4231 11.7639 35.3063 11.5671C36.174 11.3704 37.8165 11.098 38.9321 10.9618C40.3421 10.7953 41.6126 10.7499 42.9297 10.8105C43.9988 10.8559 45.7342 11.0375 46.8033 11.2191C47.8724 11.3855 49.6698 11.8395 50.8009 12.2027C52.2884 12.687 52.9547 12.8383 53.2646 12.7475C53.4815 12.687 53.8069 12.4751 53.9618 12.2633C54.1168 12.0514 54.5301 11.1826 54.5146 10.9859C54.5146 10.8043 54.2075 10.9101 54.0215 10.6679C53.7891 10.4258 53.0631 10.2203 52.3659 9.963C51.7306 9.736 50.553 9.38794 49.7473 9.17607C48.9416 8.96421 47.547 8.69181 46.6484 8.55561C45.7497 8.41941 43.9058 8.28321 42.5423 8.25294C40.8999 8.20754 39.5054 8.26808 38.4362 8.40428Z" fill="#FEFEFD"/>
<path d="M37.7246 0.227832C34.8024 0.572007 30.5504 1.52971 28.0611 2.39763C21.3817 4.73204 16.202 7.96429 11.2852 12.8875C5.62626 18.5439 1.65262 26.2056 0.477531 33.6727C-0.171857 37.8925 -0.156396 43.2497 0.508455 46.9159C1.82269 54.0089 4.71402 60.219 9.41436 65.9952C10.1565 66.893 10.8214 67.746 10.8987 67.8657C10.9914 68.0004 11.0842 72.325 11.1306 78.6399C11.2079 90.0126 11.177 89.5936 12.0274 90.0276C12.2284 90.1323 12.6149 90.2221 12.8778 90.2221C13.3416 90.2071 16.8823 88.5761 22.5722 85.7179C28.7105 82.6353 32.9315 80.6151 33.5809 80.4356C34.0447 80.3159 34.7714 80.271 35.5136 80.3308C41.4199 80.7348 42.2394 80.7648 44.7597 80.6151C53.8047 80.1064 63.2518 76.2905 69.6838 70.5742C71.8794 68.6289 74.6315 65.666 76.1468 63.6009C79.7339 58.7376 82.316 52.3928 83.3519 45.9432C83.8003 43.1599 83.8467 37.8776 83.4292 35.1691C82.3778 28.3604 79.7648 22.0605 75.8221 16.8829C69.8693 9.05667 61.5974 3.54987 52.5523 1.38007C48.3468 0.362509 47.0171 0.197907 42.7496 0.138051C40.6314 0.123087 38.3585 0.153011 37.7246 0.227832ZM45.239 9.73006C48.5014 10.0443 51.4855 10.7925 53.8202 11.8699C54.3613 12.1243 55.2272 12.5134 55.7374 12.7229C56.8197 13.1718 59.4018 14.7281 61.0717 15.9252C62.6178 17.0325 65.7256 20.0403 66.9626 21.6265C69.0808 24.335 70.5497 26.9089 71.6011 29.7521C72.9617 33.4183 73.441 36.1268 73.441 40.1821C73.441 43.2497 73.1781 45.3447 72.4978 47.7689C71.2145 52.4526 69.6993 55.4155 66.576 59.411C62.8188 64.2294 56.2786 68.3445 49.8929 69.9008C49.058 70.1103 48.2231 70.23 48.0375 70.1851C47.8056 70.1253 47.7592 70.1402 47.8984 70.23C48.3004 70.4994 44.7906 70.9184 42.1312 70.9184C39.5336 70.9333 37.2144 70.7687 37.3381 70.5742C37.369 70.4994 37.2453 70.4844 37.0288 70.5143C35.9774 70.7238 30.2566 68.9581 27.4426 67.5664C24.072 65.8904 22.3557 64.7083 19.8046 62.2841C13.3416 56.1189 10.0483 48.3974 10.0483 39.359C10.0483 36.9498 10.2184 35.633 10.8987 33.0741C11.7954 29.6174 13.0633 26.849 15.2279 23.6467C19.3407 17.5413 25.5099 13.0671 32.8078 10.9421C37.3226 9.62531 40.7242 9.2961 45.239 9.73006Z" fill="white"/>
<path fill-rule="evenodd" clip-rule="evenodd" d="M42.0371 23.6633C42.8479 23.6947 44.189 23.8358 44.9998 23.977C45.8107 24.1181 47.0114 24.4475 47.6507 24.7141C48.29 24.965 49.3036 25.4198 49.9117 25.7335C50.5199 26.0471 51.4243 26.5803 51.9389 26.9254C52.4535 27.2704 53.545 28.227 54.3715 29.0582C55.1823 29.8894 56.2427 31.1598 56.7261 31.8968C57.1939 32.6339 57.7708 33.622 58.0203 34.0925C58.2542 34.5629 58.6908 35.6921 58.9871 36.6017C59.4237 37.872 59.5641 38.5934 59.6108 39.7383C59.6576 40.6479 59.6108 41.5732 59.5017 42.0907C59.3925 42.5612 59.0807 43.2983 58.8156 43.7374C58.5349 44.1609 58.0203 44.7725 57.6773 45.0705C57.3342 45.3685 56.6793 45.7448 56.2115 45.9017C55.5566 46.1056 54.8549 46.1683 50.7694 46.1683L49.6311 46.8427C49.0229 47.219 48.0561 47.7523 47.4948 48.0346C46.9334 48.3169 45.8886 48.7246 45.1558 48.9442C43.9707 49.3206 43.5184 49.3676 38.0608 49.4617L36.4234 50.3556C35.519 50.8418 34.256 51.5005 33.6166 51.8298C32.9773 52.1592 32.0261 52.6767 31.5115 52.9747C30.9969 53.2883 30.3888 53.5393 30.1393 53.5393C29.8742 53.5393 29.6559 53.4295 29.5624 53.2256C29.4688 53.0531 29.4064 52.7394 29.4064 52.5199C29.4064 52.3003 29.5 51.8612 29.6247 51.5318C29.7495 51.2182 30.1393 49.9792 30.4824 48.803C30.841 47.6111 31.0905 46.529 31.0437 46.4035C30.9814 46.2153 30.5915 46.1526 29.0478 46.1212C27.4261 46.0899 27.0206 46.0271 26.3033 45.6978C25.8355 45.4782 25.243 45.0548 24.9779 44.7568C24.6972 44.4589 24.2918 43.8159 24.0579 43.3454C23.824 42.8749 23.5589 42.028 23.4497 41.4634C23.3094 40.6165 23.325 40.1774 23.5433 38.9542C23.6992 38.1386 23.9955 36.9311 24.2138 36.2881C24.4321 35.6451 24.822 34.6884 25.087 34.1709C25.3365 33.6533 25.9759 32.6026 26.506 31.8184C27.0206 31.05 27.9874 29.8738 28.6267 29.2308C29.2661 28.5878 30.1081 27.8036 30.498 27.49C30.8878 27.192 31.4492 26.7842 31.7454 26.6117C32.0417 26.4392 32.7434 26.0314 33.3048 25.7335C33.8661 25.4355 34.9109 24.9807 35.6438 24.7298C36.3767 24.4632 37.3902 24.1809 37.9048 24.0711C38.4194 23.977 39.2303 23.8202 39.6981 23.7417C40.1659 23.6633 41.2262 23.632 42.0371 23.6633ZM35.3007 34.7355C35.1448 34.8766 34.9656 35.0177 34.8097 35.3627C34.6382 35.7077 34.6453 36.0932 34.6453 36.4226C34.6453 36.7362 34.6194 36.9784 34.791 37.3235C34.9625 37.6685 35.3085 38.0361 35.558 38.2243C35.7919 38.3968 36.0836 38.5012 36.3798 38.5953C36.7853 38.7207 36.9766 38.7207 37.4756 38.5953C37.8342 38.4855 38.3143 38.279 38.6262 38.0124C38.9224 37.7301 39.1433 37.2975 39.2836 36.9525C39.3932 36.5286 39.4008 36.1317 39.3384 35.7867C39.276 35.4887 39.15 35.2897 39.0097 34.9918C38.8693 34.6938 38.6485 34.544 38.3522 34.3559C38.0559 34.152 37.673 33.979 37.33 33.9319C36.9557 33.8849 36.6084 33.9199 36.2342 34.0611C35.8911 34.1865 35.4567 34.5786 35.3007 34.7355ZM45.0912 34.3559C44.8729 34.497 44.5269 34.6251 44.3242 34.9388C44.1059 35.2524 43.8927 35.6006 43.8615 35.9456C43.8147 36.3534 43.9023 36.7627 44.105 37.2175C44.2609 37.6095 44.5758 37.9891 44.8721 38.2243C45.1527 38.4596 45.6248 38.3893 45.9678 38.4363C46.3733 38.499 46.5486 38.4871 46.954 38.3303C47.2971 38.1892 47.6595 38.0454 47.9402 37.7474C48.2053 37.4337 48.3524 37.1877 48.3992 36.9525C48.4616 36.7016 48.4645 36.2847 48.4333 35.8926C48.3865 35.4378 48.2053 35.2092 47.9402 34.8328C47.6907 34.5191 47.4619 34.4813 47.228 34.3559C46.9785 34.2461 46.7652 34.2439 46.5157 34.1969C46.2662 34.1498 46.107 34.1498 45.8575 34.1969C45.608 34.2596 45.3095 34.199 45.0912 34.3559Z" fill="#EDF6E9"/>
<ellipse cx="46.132" cy="36.2105" rx="2.73943" ry="2.59665" fill="#05425D"/>
<ellipse cx="36.9274" cy="36.2105" rx="2.73943" ry="2.59665" fill="#05425D"/>
<path d="M22.6276 23.2273L19.8882 26.3009" stroke="white" stroke-width="3" stroke-linecap="round"/>
<path d="M34.7379 90.6684L35.0958 88.7576L39.9312 89.8065L39.5733 91.7172L34.7379 90.6684ZM36.1825 82.9566L36.5404 81.0458L41.3757 82.0946L41.0178 84.0054L36.1825 82.9566ZM35.5104 86.5444L35.8606 84.6749L40.422 85.6643L40.0718 87.5338L35.5104 86.5444ZM35.0062 80.713L37.2253 81.1943L35.4228 90.8169L33.2037 90.3356L35.0062 80.713Z" fill="white"/>
<path d="M41.141 85.5731L43.3805 85.342L45.1721 88.7494L46.3154 85.0391L48.5549 84.808L45.4944 92.3647L41.141 85.5731Z" fill="white"/>
<path d="M50.6676 87.1081L50.2684 85.0141L57.4998 83.4178L57.8989 85.5117L50.6676 87.1081ZM55.3702 80.2272L57.676 79.7182L59.5143 89.3614L57.2085 89.8704L55.3702 80.2272ZM48.9575 81.6428L51.2633 81.1337L53.1016 90.777L50.7958 91.286L48.9575 81.6428Z" fill="white"/>
<path d="M63.0876 85.1137C63.221 85.4635 63.3898 85.7108 63.5942 85.8555C63.7952 85.9916 64.0532 85.99 64.3682 85.851C64.581 85.7571 64.743 85.6344 64.8544 85.4831C64.9743 85.328 65.0451 85.1486 65.0669 84.9448C65.0887 84.7411 65.0545 84.5211 64.9645 84.285L63.5642 80.612L65.4922 79.7608L67.7927 85.7951L65.8647 86.6462L65.5196 85.7411C65.4643 86.1436 65.3285 86.5049 65.1125 86.8251C64.8931 87.1365 64.5663 87.3881 64.1322 87.5797C63.4002 87.9029 62.7872 87.9385 62.2934 87.6866C61.8047 87.4221 61.4236 86.9313 61.1502 86.2142L59.6699 82.3313L61.6872 81.4406L63.0876 85.1137Z" fill="white"/>
<path d="M66.4057 74.0616L72.3751 83.2524L70.6919 84.5184L64.7225 75.3276L66.4057 74.0616ZM74.8061 77.3901C75.199 77.9949 75.4143 78.5989 75.452 79.2019C75.492 79.7915 75.3977 80.336 75.169 80.8354C74.9477 81.3293 74.6253 81.7354 74.2017 82.054C73.7781 82.3726 73.3251 82.5438 72.8427 82.5675C72.3604 82.5912 71.8848 82.4636 71.4161 82.1847C70.9474 81.9058 70.5243 81.4757 70.1467 80.8944C69.7641 80.3053 69.5341 79.7299 69.4569 79.1682C69.3746 78.5987 69.4267 78.0743 69.6132 77.595C69.7996 77.1157 70.1046 76.7167 70.5282 76.3982C70.9518 76.0796 71.4171 75.8933 71.9241 75.8394C72.4385 75.7799 72.9461 75.8717 73.4469 76.1148C73.9551 76.3522 74.4082 76.7773 74.8061 77.3901ZM73.0338 78.7231C72.8501 78.4403 72.6362 78.2387 72.3921 78.1183C72.1428 77.99 71.8896 77.9408 71.6324 77.9705C71.3701 77.9924 71.1275 78.0872 70.9045 78.2549C70.7113 78.4002 70.5575 78.5977 70.4432 78.8474C70.3363 79.0915 70.2922 79.3643 70.3111 79.6659C70.3248 79.9595 70.4261 80.2517 70.6149 80.5423C70.8037 80.833 71.0264 81.0396 71.283 81.1623C71.5346 81.2771 71.7852 81.3224 72.035 81.2983C72.2922 81.2685 72.5174 81.181 72.7107 81.0357C72.9336 80.868 73.1022 80.6593 73.2166 80.4096C73.3258 80.1521 73.3699 79.8792 73.3487 79.5912C73.3224 79.2952 73.2174 79.0059 73.0338 78.7231Z" fill="white"/>
</svg>
